<?xml version="1.0" encoding="utf-8"?>
<!-- Generator: Adobe Illustrator 26.4.1, SVG Export Plug-In . SVG Version: 6.00 Build 0)  -->
<svg version="1.1" id="Layer_1" xmlns="http://www.w3.org/2000/svg" xmlns:xlink="http://www.w3.org/1999/xlink" x="0px" y="0px"
	 viewBox="0 0 120 120" style="enable-background:new 0 0 120 120;" xml:space="preserve">
<style type="text/css">
	.st0{fill:#66C5F4;}
	.st1{fill:#101030;}
</style>
<g>
	<polygon class="st0" points="25.7,26.9 13.8,47.5 4.2,38 12.7,23.4 	"/>
	<polygon class="st0" points="14.2,73.2 26,93.7 13.1,97.3 4.6,82.7 	"/>
	<polygon class="st0" points="48.5,106.3 72.2,106.3 68.8,119.3 51.9,119.3 	"/>
	<polygon class="st0" points="94.3,93.1 106.2,72.5 115.8,82 107.3,96.6 	"/>
	<polygon class="st0" points="105.8,46.8 94,26.3 106.9,22.7 115.4,37.3 	"/>
	<polygon class="st0" points="71.5,13.7 47.8,13.7 51.2,0.7 68.1,0.7 	"/>
	<path class="st0" d="M59.6,11.1c-27,0-48.9,21.9-48.9,48.9c0,27,21.9,48.9,48.9,48.9S108.5,87,108.5,60
		C108.5,33,86.6,11.1,59.6,11.1z M59.6,93.7C41,93.7,25.9,78.6,25.9,60S41,26.3,59.6,26.3S93.3,41.4,93.3,60S78.2,93.7,59.6,93.7z"
		/>
	<g>
		<path class="st1" d="M49.6,49.7L38,61.3c-0.1,0.1-0.4,0.1-0.5,0l-0.9-0.9c-0.1-0.1-0.1-0.4,0-0.5l11.6-11.6c0.1-0.1,0.4-0.1,0.5,0
			l0.9,0.9C49.7,49.3,49.7,49.5,49.6,49.7z"/>
		<path class="st1" d="M48.1,72.3L36.5,60.7c-0.1-0.1-0.1-0.4,0-0.5l0.9-0.9c0.1-0.1,0.4-0.1,0.5,0l11.6,11.6c0.1,0.1,0.1,0.4,0,0.5
			l-0.9,0.9C48.5,72.4,48.3,72.4,48.1,72.3z"/>
	</g>
	<g>
		<path class="st1" d="M70.4,49.7L82,61.3c0.1,0.1,0.4,0.1,0.5,0l0.9-0.9c0.1-0.1,0.1-0.4,0-0.5L71.9,48.2c-0.1-0.1-0.4-0.1-0.5,0
			l-0.9,0.9C70.3,49.3,70.3,49.5,70.4,49.7z"/>
		<path class="st1" d="M71.9,72.3l11.6-11.6c0.1-0.1,0.1-0.4,0-0.5l-0.9-0.9c-0.1-0.1-0.4-0.1-0.5,0L70.4,70.8
			c-0.1,0.1-0.1,0.4,0,0.5l0.9,0.9C71.5,72.4,71.7,72.4,71.9,72.3z"/>
	</g>
	<path class="st1" d="M52.2,75l17.5-28.9c0.1-0.2,0.1-0.4-0.1-0.5l-1.1-0.7c-0.2-0.1-0.4-0.1-0.5,0.1L50.5,73.9
		c-0.1,0.2-0.1,0.4,0.1,0.5l1.1,0.7C51.9,75.2,52.1,75.2,52.2,75z"/>
</g>
<g>
</g>
<g>
</g>
<g>
</g>
<g>
</g>
<g>
</g>
<g>
</g>
<g>
</g>
<g>
</g>
<g>
</g>
<g>
</g>
<g>
</g>
<g>
</g>
<g>
</g>
<g>
</g>
<g>
</g>
</svg>
